<?xml version="1.0" standalone="no"?>
<!DOCTYPE svg PUBLIC "-//W3C//DTD SVG 20010904//EN"
 "http://www.w3.org/TR/2001/REC-SVG-20010904/DTD/svg10.dtd">
<svg version="1.0" xmlns="http://www.w3.org/2000/svg"
 width="985.000000pt" height="985.000000pt" viewBox="0 0 985.000000 985.000000"
 preserveAspectRatio="xMidYMid meet">
<metadata>
Created by potrace 1.14, written by Peter Selinger 2001-2017
</metadata>
<g transform="translate(0.000000,985.000000) scale(0.100000,-0.100000)"
fill="#000000" stroke="none">
<path d="M966 9628 c7 -12 159 -224 429 -598 61 -85 168 -233 236 -328 68 -95
152 -212 187 -260 34 -48 74 -105 89 -127 14 -22 29 -42 32 -45 4 -3 56 -75
117 -160 95 -133 465 -649 803 -1118 53 -74 116 -162 141 -197 41 -58 333
-465 474 -660 456 -632 734 -1021 760 -1062 25 -39 27 -48 15 -57 -8 -6 -15
-17 -17 -25 -1 -7 -9 -20 -17 -28 -8 -8 -15 -19 -15 -24 0 -6 -4 -8 -9 -5 -5
3 -12 -5 -15 -19 -4 -14 -11 -25 -16 -25 -6 0 -10 -7 -10 -15 0 -7 -6 -18 -13
-22 -8 -4 -17 -16 -20 -26 -4 -10 -12 -15 -17 -12 -6 4 -10 3 -9 -2 4 -21 -2
-34 -13 -27 -7 5 -8 3 -3 -6 4 -7 2 -16 -6 -21 -8 -4 -14 -14 -14 -21 -1 -7
-7 -12 -15 -10 -8 2 -12 0 -8 -4 8 -7 -35 -71 -56 -86 -6 -4 -7 -8 -3 -8 5 0
2 -7 -5 -15 -30 -33 -38 -45 -38 -54 0 -5 -4 -11 -8 -13 -5 -1 -29 -33 -54
-70 -24 -38 -48 -65 -51 -61 -4 3 -7 -1 -7 -11 0 -16 -7 -28 -42 -66 -9 -10
-14 -21 -10 -24 3 -3 0 -6 -6 -6 -6 0 -14 -9 -17 -20 -4 -11 -11 -17 -17 -14
-6 4 -8 2 -4 -4 3 -6 -5 -22 -19 -36 -14 -14 -22 -26 -18 -26 4 0 0 -7 -10
-14 -10 -8 -18 -16 -17 -18 4 -10 -13 -37 -21 -32 -5 3 -9 -2 -9 -10 0 -8 -8
-20 -17 -25 -10 -6 -14 -11 -10 -11 4 0 3 -9 -3 -20 -6 -11 -16 -17 -22 -14
-7 4 -8 3 -4 -4 4 -7 2 -12 -4 -12 -6 0 -8 -4 -5 -10 3 -5 2 -10 -3 -10 -5 0
-14 -12 -20 -26 -7 -14 -16 -23 -21 -20 -5 3 -8 -2 -7 -12 0 -9 -5 -16 -12
-14 -8 1 -11 -2 -7 -8 3 -6 0 -17 -7 -25 -19 -21 -30 -36 -62 -82 -16 -24 -32
-40 -37 -37 -5 3 -6 -1 -4 -8 3 -8 -4 -23 -15 -35 -11 -12 -20 -27 -20 -33 0
-5 -4 -10 -10 -10 -5 0 -10 -7 -10 -15 0 -9 -7 -18 -15 -21 -8 -4 -15 -12 -15
-20 0 -8 -5 -14 -10 -14 -11 0 -7 -6 -300 410 -111 157 -219 310 -241 340 -46
65 -327 462 -417 590 -71 101 -49 92 -226 91 -54 0 -101 -2 -103 -5 -4 -4 255
-377 390 -561 16 -22 192 -271 392 -554 294 -416 361 -516 352 -528 -7 -8 -20
-23 -29 -34 -10 -10 -18 -20 -17 -21 2 -11 -15 -37 -22 -32 -5 3 -8 2 -7 -3 4
-13 -98 -154 -106 -146 -4 4 -4 0 0 -10 3 -9 2 -17 -2 -17 -5 0 -25 -25 -44
-55 -19 -30 -38 -55 -42 -55 -5 0 -8 -6 -8 -14 0 -8 -8 -21 -19 -28 -10 -7
-19 -17 -20 -23 0 -5 -7 -18 -15 -27 -8 -9 -20 -26 -26 -37 -6 -12 -15 -19
-20 -16 -6 3 -7 -1 -4 -9 3 -9 1 -16 -4 -16 -6 0 -13 -8 -17 -17 -3 -10 -17
-31 -31 -48 -15 -16 -23 -24 -19 -16 6 9 4 12 -4 7 -6 -4 -9 -11 -6 -16 6 -10
-40 -80 -81 -124 -6 -6 -12 -15 -14 -21 -8 -26 -33 -54 -43 -48 -5 3 -7 2 -4
-4 8 -12 -27 -65 -37 -56 -4 5 -6 4 -5 -2 4 -12 -32 -75 -43 -75 -4 0 -8 -7
-8 -15 0 -9 -7 -18 -15 -21 -8 -4 -12 -10 -9 -15 3 -5 -2 -12 -10 -15 -9 -3
-16 -12 -16 -20 0 -8 -4 -14 -10 -14 -5 0 -10 -7 -10 -15 0 -8 -3 -15 -7 -15
-5 0 -16 -14 -25 -31 -10 -17 -22 -28 -28 -24 -5 3 -7 0 -5 -7 3 -8 -4 -23
-15 -35 -11 -12 -20 -27 -20 -33 0 -5 -4 -10 -10 -10 -5 0 -10 -7 -10 -15 0
-9 -7 -18 -15 -21 -8 -4 -15 -10 -15 -15 0 -5 -16 -30 -36 -56 -19 -27 -41
-55 -47 -64 -7 -8 -16 -22 -22 -31 -5 -8 -25 -36 -43 -63 -17 -27 -32 -45 -32
-39 0 5 -9 -10 -21 -33 -12 -24 -26 -40 -32 -36 -5 3 -7 2 -4 -4 4 -5 -3 -19
-13 -31 -11 -12 -20 -24 -20 -27 0 -4 -6 -13 -13 -20 -26 -30 -37 -44 -37 -50
0 -11 -72 -105 -81 -105 -5 0 -8 -6 -7 -12 2 -7 -3 -12 -10 -10 -8 1 -11 -2
-7 -8 4 -7 -2 -21 -13 -33 -11 -12 -36 -48 -57 -79 -21 -32 -42 -55 -48 -51
-6 3 -7 1 -3 -5 4 -6 -8 -31 -26 -55 -18 -24 -39 -53 -47 -65 -8 -11 -19 -18
-24 -15 -6 3 -7 1 -3 -5 8 -14 -48 -94 -59 -84 -5 4 -5 2 -2 -4 4 -6 -4 -23
-18 -38 -13 -14 -22 -26 -19 -26 4 0 -46 -71 -74 -106 -5 -5 -15 -20 -21 -32
-7 -13 -16 -20 -20 -17 -5 2 -8 -3 -7 -13 0 -9 -4 -16 -10 -15 -7 1 -11 -5
-10 -15 0 -9 -5 -16 -12 -14 -6 1 -11 -1 -11 -5 3 -21 -2 -33 -13 -27 -6 4 -8
3 -4 -4 3 -6 -1 -17 -9 -25 -8 -9 -15 -20 -15 -26 0 -5 -12 -19 -28 -31 -15
-12 -25 -23 -23 -23 6 -2 -28 -56 -46 -75 -7 -7 -13 -18 -13 -23 0 -6 -5 -7
-12 -3 -6 4 -8 3 -4 -4 3 -5 -4 -23 -17 -39 -13 -15 -40 -52 -59 -80 -19 -29
-38 -50 -42 -45 -4 4 -6 2 -5 -3 4 -12 -32 -75 -41 -70 -3 2 -6 -4 -6 -13 0
-16 84 -17 1219 -17 l1219 0 52 72 c28 39 157 221 286 403 129 182 257 362
283 398 27 37 113 158 192 270 l143 202 71 -97 c55 -77 327 -462 393 -556 7
-11 23 -33 36 -50 13 -18 82 -117 155 -220 73 -104 164 -232 202 -285 39 -53
104 -145 145 -204 41 -59 78 -108 82 -108 3 0 48 60 99 133 51 72 147 209 214
302 66 94 127 180 135 191 8 12 51 72 95 134 80 113 111 156 169 240 17 24 35
49 39 55 5 5 84 118 177 250 93 132 173 245 177 250 7 8 144 201 311 440 20
28 139 196 266 375 126 179 274 388 329 465 54 77 105 149 113 160 8 11 80
112 159 225 80 113 151 212 158 221 6 8 17 23 22 31 6 9 33 49 62 89 29 41 58
82 65 93 7 10 45 63 83 117 39 54 126 177 195 275 69 97 184 259 255 360 195
275 256 362 297 421 31 43 35 53 20 54 -69 4 -257 -2 -262 -8 -4 -5 -128 -179
-275 -388 -372 -526 -377 -534 -416 -590 -19 -27 -37 -52 -40 -55 -3 -3 -32
-43 -64 -90 -32 -47 -84 -120 -114 -162 -31 -42 -105 -148 -166 -234 -60 -87
-128 -183 -151 -213 -22 -31 -116 -164 -209 -296 -93 -132 -172 -242 -175
-245 -3 -3 -9 -13 -15 -22 -5 -10 -122 -176 -260 -370 -137 -194 -287 -404
-332 -468 -45 -63 -91 -128 -103 -145 -26 -36 -435 -615 -495 -700 -62 -89
-322 -456 -342 -483 -9 -12 -20 -21 -24 -20 -6 3 -155 209 -311 433 -27 39
-77 109 -111 157 -34 48 -92 129 -128 180 -36 51 -138 196 -227 322 l-162 228
19 32 c11 17 164 234 340 481 176 248 325 457 331 465 6 8 130 184 277 390
147 206 278 391 292 412 14 20 168 235 341 479 173 243 326 458 340 478 14 20
81 114 149 210 86 121 121 178 115 187 -5 7 -83 116 -173 241 -213 294 -514
714 -559 778 -20 28 -100 139 -179 248 -79 108 -143 201 -143 206 0 5 -4 11
-8 13 -8 2 -116 149 -221 299 -14 21 -110 153 -212 295 -713 994 -1186 1652
-1199 1671 -8 11 -82 114 -165 229 -82 114 -163 226 -180 249 -16 24 -82 115
-145 204 l-115 160 -1223 1 c-976 0 -1222 -3 -1216 -12z m1434 -4921 c106
-150 247 -348 314 -442 67 -93 129 -183 140 -200 10 -16 21 -32 25 -35 15 -11
331 -469 331 -479 0 -26 -21 -6 -71 67 -29 42 -67 96 -83 118 -17 23 -37 50
-44 60 -17 26 -243 347 -292 414 -21 30 -82 116 -134 190 -52 74 -99 140 -104
145 -5 6 -17 24 -28 40 -10 17 -23 35 -27 40 -34 41 -247 348 -247 355 0 30
48 -30 220 -273z m6290 244 c-11 -14 -38 -51 -59 -81 -21 -30 -82 -116 -135
-190 -53 -74 -102 -143 -108 -153 -15 -22 -84 -118 -95 -132 -5 -5 -17 -23
-27 -40 -11 -16 -23 -34 -28 -40 -5 -5 -67 -93 -139 -195 -126 -179 -177 -250
-237 -335 -97 -135 -664 -938 -699 -988 -23 -34 -47 -68 -53 -75 -6 -7 -29
-38 -50 -70 -42 -61 -75 -108 -132 -187 -20 -27 -54 -75 -75 -105 -112 -161
-410 -582 -443 -625 -14 -19 -56 -80 -95 -135 -38 -56 -88 -127 -111 -158 -22
-31 -87 -122 -143 -202 -56 -80 -107 -152 -114 -160 -7 -8 -30 -41 -52 -74
-56 -82 -63 -91 -130 -184 -33 -46 -67 -94 -75 -105 -30 -44 -149 -212 -157
-222 -5 -5 -17 -23 -27 -40 -11 -16 -23 -34 -28 -40 -5 -5 -15 -19 -23 -30 -7
-11 -15 -18 -18 -15 -2 3 -109 154 -237 335 -128 182 -292 413 -364 515 -72
101 -188 265 -258 365 -70 99 -134 188 -142 199 -14 18 -11 55 4 39 5 -4 46
-62 93 -128 46 -66 184 -262 307 -435 123 -173 239 -337 258 -365 19 -27 62
-88 96 -135 64 -89 72 -100 175 -248 35 -51 67 -92 71 -92 5 0 65 80 134 178
68 97 129 182 133 187 5 6 33 46 63 90 30 44 57 82 60 85 3 3 64 88 135 190
72 102 133 190 138 195 5 6 57 80 117 165 60 85 141 200 180 255 39 55 132
186 206 290 74 105 141 199 148 210 8 11 96 135 195 275 195 277 280 397 460
650 64 91 204 289 311 440 106 151 205 291 219 310 15 19 40 55 56 80 17 25
32 47 36 50 3 3 68 94 145 203 76 109 164 233 194 276 30 42 102 144 160 225
58 81 115 163 127 182 15 22 28 31 38 28 13 -5 12 -10 -5 -33z"/>
</g>
</svg>
